<?xml version="1.0" encoding="UTF-8"?><svg id="Layer_2" xmlns="http://www.w3.org/2000/svg" viewBox="0 0 521.29 643.15"><defs><style>.cls-1{stroke-width:0px;}</style></defs><g id="Layer_1-2"><path class="cls-1" d="m66.75,132c-.97,30.89,8.77,57.52,32.46,77.92,8.91,7.68,19.03,14.04,28.96,20.44,29.54,19.04,59.29,37.76,88.87,56.74,2.97,1.9,5.16,1.86,8.06,0,9.53-6.1,19.42-11.67,28.78-18.02,4.48-3.04,7.76-3.32,12.4-.25,9.71,6.43,19.99,11.99,29.81,18.27,3.08,1.97,5.22,1.62,8.01-.19,25.56-16.59,51.23-33.02,76.78-49.63,12.14-7.9,24.46-15.59,36.05-24.25,24.26-18.14,36.13-42.94,37.11-73.05.21-6.49.06-13-.01-19.49-.05-5.12.94-9.76,6.03-12.19,5.13-2.46,9.41-.19,13.23,3.11,18.72,16.14,32.16,35.84,40.02,59.33,12.04,35.99,9.37,71.7-.79,107.66-8.91,31.57-24.88,59.43-42.16,86.87-32.14,51.02-63.98,102.24-95.78,153.47-8.54,13.75-12.71,29.23-16.62,44.8-8.57,34.13-27.98,59.6-61.26,72.61-47.53,18.57-98.44-.66-123.31-46.41-4.94-9.09-8.82-19.19-10.96-29.3-4.89-23.1-14.99-43.66-27.42-63.35-30.6-48.43-61.18-96.88-91.84-145.28-19.62-30.96-34.81-63.76-40.55-100.24C-3.23,214.39.07,178.46,19.18,145.08c7.11-12.42,16.11-23.26,27.2-32.32,1.8-1.47,3.65-2.97,5.69-4.04,7.06-3.69,14.16.34,14.68,8.28.16,2.49,0,5,0,7.5,0,2.5,0,5,0,7.5Zm265.54,172.01c-9.59,5.33-18.36,9.99-26.9,15.05-4.07,2.41-7.48,2.45-11.54-.03-9.38-5.72-19.13-10.84-28.41-16.72-4.19-2.66-7.18-2.31-11.18.27-9.23,5.95-18.85,11.3-28.23,17.01-3.55,2.16-6.75,2.04-10.26-.12-7.52-4.62-15.16-9.04-22.78-13.5-1.36-.79-2.83-1.39-4.83-2.36,0,16.08-.1,31.37.15,46.65.02,1.49,1.89,3.28,3.32,4.39,35.89,27.76,95.12,32.21,137.64-.09,2.43-1.85,3.28-3.7,3.24-6.63-.18-12.5-.16-24.99-.21-37.49,0-1.9,0-3.81,0-6.44Zm-143.94,163.77c0,13.43.17,26.42-.1,39.4-.09,4.19,1.41,6.7,4.73,9.03,16.99,11.9,36.06,17.59,56.49,19.42,28.49,2.54,55.02-2.65,78.71-19.56,3.06-2.19,4.29-4.51,4.21-8.25-.24-12.16-.13-24.32-.18-36.48,0-1.09-.23-2.17-.35-3.28-47.88,24.26-95.43,24.09-143.5-.27Zm143.86-80.56c-48.55,26.37-96.16,25.42-143.87.26,0,13.74.13,27.07-.09,40.38-.06,3.48,1.33,5.43,3.94,7.37,38.51,28.64,98.96,28.43,137.63-.63,1.06-.8,2.28-2.27,2.29-3.44.16-14.45.1-28.9.1-43.94Zm-142.91,160.83c3.91,24.14,14.25,43.91,35.38,56.01,23.9,13.69,48.81,14.22,72.55-.56,20-12.46,30.83-31.3,34.09-55.01-47.59,23.45-94.4,22.95-142.01-.44ZM84.97,55.83c5.5,0,11.02.25,16.49-.14,1.94-.14,4.43-1.36,5.54-2.9C132.16,17.79,166.22.09,209.3.2c16.76.04,32.53,4.71,47.52,12.17,1.64.82,4.32,1.17,5.82.39,54.44-27.98,116.29-7.24,148.24,36.02,4,5.41,8.01,7.7,14.75,7.22,9.12-.65,18.32-.22,27.48-.08,8.93.14,15.15,6.49,15.11,15.15-.04,8.02-6.19,13.78-15.08,14-4.83.12-9.67-.05-14.5.08-6.56.18-9,3.11-7.66,9.44,4.79,22.71,2.92,44.67-9.08,64.77-16.11,26.98-40.24,40.3-71.83,37.91-30.39-2.3-50.84-19.1-62.55-46.59-3.34-7.85-4.8-16.55-6.65-24.97-1.23-5.6-3.11-7.68-9.06-7.72-7.66-.05-15.33-.03-22.99.02-5.49.04-7.64,2.06-8.64,7.59-1.01,5.57-1.81,11.21-3.33,16.64-13.8,49.24-70.31,71.47-112.84,43.41-26.56-17.52-37.92-43.85-36.42-75.56.25-5.29,1.35-10.55,2.33-15.78,1.21-6.43-.68-8.97-7.36-9.09-4.5-.09-9,.03-13.5-.02-9.73-.12-16.19-5.99-16.13-14.61.06-8.63,6.44-14.59,16.05-14.82,5.33-.13,10.66-.02,16-.02v.07Zm291.94-1.13c-8.55-9.87-22.69-18.79-35.98-22.44-26.46-7.27-51.11-3.32-73.87,12.19-6.87,4.69-6.97,4.54-13.68-.08-33.13-22.84-75.12-20.44-105.32,6.02-1.38,1.21-2.63,2.57-4.56,4.46,11.03,0,20.85.32,30.64-.06,25.46-1,44.61,9.77,58.79,30.47,1.01,1.47,3.36,2.85,5.1,2.87,15.16.24,30.33.25,45.49.07,1.6-.02,3.83-1.24,4.69-2.59,13.75-21.47,33.03-32.11,58.74-31,9.77.42,19.57.07,29.95.07Zm-35.8,114.08c.97-.57,3.43-1.58,5.31-3.24,3.11-2.75,5.81-5.96,8.75-8.91,18.13-18.15,36.31-36.26,54.41-54.45,5.06-5.09,5.4-10.26,1.26-14.5-4.56-4.69-10.28-4.56-15.31.36-20.14,19.68-40.29,39.34-60.38,59.08-1.99,1.95-3.98,4.16-5.16,6.63-3.19,6.71,2.27,15.17,11.11,15.03Zm-123.75-57.96c.05-6.48-2.76-9.59-6.73-11.3-3.93-1.69-7.77-.8-11,2.36-11.51,11.31-23.13,22.51-34.61,33.86-5.91,5.84-11.75,11.77-17.34,17.92-2.97,3.26-3.36,7.22-.59,10.99,2.72,3.7,6.51,5.31,10.93,4.22,2.15-.53,4.34-1.88,5.95-3.44,16.93-16.48,33.78-33.05,50.53-49.72,1.63-1.62,2.4-4.09,2.86-4.89Zm-6.55,130.09c.15,6.23,4.21,10.64,9.99,10.91,6.24.29,11.55-4.02,11.97-10.25.36-5.3.34-10.66.05-15.97-.32-5.89-5.7-10.4-11.54-10.16-6.04.24-10.37,4.77-10.47,10.99-.04,2.33,0,4.66,0,6.99,0,2.5-.05,4.99,0,7.49Zm77.23-7.58c0,2.82-.14,5.66.03,8.47.36,5.86,5.09,10.12,10.92,10.02,5.59-.09,10.11-4.28,10.34-10.05.22-5.47.19-10.97-.06-16.44-.27-5.93-5.02-10.07-10.94-9.96-5.79.11-10.27,4.6-10.4,10.48-.05,2.49,0,4.98,0,7.47.04,0,.08,0,.12,0Z"/></g></svg>