<?xml version="1.0" encoding="UTF-8"?><svg id="Layer_2" xmlns="http://www.w3.org/2000/svg" viewBox="0 0 266.97 65.51"><defs><style>.cls-1{fill:#fff;stroke-width:0px;}</style></defs><g id="Layer_1-2"><circle class="cls-1" cx="7.37" cy="7.37" r="7.37"/><circle class="cls-1" cx="28.66" cy="7.37" r="7.37"/><circle class="cls-1" cx="49.95" cy="7.37" r="7.37"/><circle class="cls-1" cx="71.25" cy="7.37" r="7.37"/><circle class="cls-1" cx="92.54" cy="7.37" r="7.37"/><circle class="cls-1" cx="113.83" cy="7.37" r="7.37"/><circle class="cls-1" cx="135.12" cy="7.37" r="7.37"/><circle class="cls-1" cx="156.41" cy="7.37" r="7.37"/><circle class="cls-1" cx="177.71" cy="7.37" r="7.37"/><circle class="cls-1" cx="199" cy="7.37" r="7.37"/><circle class="cls-1" cx="220.29" cy="7.37" r="7.37"/><circle class="cls-1" cx="241.58" cy="7.37" r="7.37"/><circle class="cls-1" cx="25.39" cy="32.76" r="7.37"/><circle class="cls-1" cx="46.68" cy="32.76" r="7.37"/><circle class="cls-1" cx="67.97" cy="32.76" r="7.37"/><circle class="cls-1" cx="89.26" cy="32.76" r="7.37"/><circle class="cls-1" cx="110.55" cy="32.76" r="7.37"/><circle class="cls-1" cx="131.85" cy="32.76" r="7.37"/><circle class="cls-1" cx="153.14" cy="32.76" r="7.37"/><circle class="cls-1" cx="174.43" cy="32.76" r="7.37"/><circle class="cls-1" cx="195.72" cy="32.76" r="7.37"/><circle class="cls-1" cx="217.01" cy="32.76" r="7.37"/><circle class="cls-1" cx="238.31" cy="32.76" r="7.37"/><circle class="cls-1" cx="259.6" cy="32.76" r="7.37"/><circle class="cls-1" cx="7.37" cy="58.14" r="7.37"/><circle class="cls-1" cx="28.66" cy="58.14" r="7.37"/><circle class="cls-1" cx="49.95" cy="58.14" r="7.37"/><circle class="cls-1" cx="71.25" cy="58.14" r="7.37"/><circle class="cls-1" cx="92.54" cy="58.14" r="7.37"/><circle class="cls-1" cx="113.83" cy="58.14" r="7.37"/><circle class="cls-1" cx="135.12" cy="58.14" r="7.37"/><circle class="cls-1" cx="156.41" cy="58.14" r="7.37"/><circle class="cls-1" cx="177.71" cy="58.14" r="7.37"/><circle class="cls-1" cx="199" cy="58.14" r="7.37"/><circle class="cls-1" cx="220.29" cy="58.14" r="7.37"/><circle class="cls-1" cx="241.58" cy="58.14" r="7.37"/></g></svg>