<?xml version="1.0" encoding="UTF-8"?><svg id="Layer_2" xmlns="http://www.w3.org/2000/svg" viewBox="0 0 274.95 62.19"><defs><style>.cls-1{fill:none;stroke:#fff;stroke-miterlimit:10;stroke-width:3.19px;}</style></defs><g id="Layer_1-2"><path class="cls-1" d="m0,36.79c7.6,0,11.24-4.23,18.12-13.02C25.43,14.41,35.44,1.6,54.99,1.6s29.56,12.82,36.87,22.17c6.87,8.79,10.51,13.02,18.11,13.02s11.24-4.23,18.11-13.02c7.31-9.36,17.32-22.17,36.87-22.17s29.56,12.81,36.87,22.17c6.87,8.8,10.51,13.02,18.12,13.02s11.24-4.23,18.11-13.02c7.31-9.36,17.32-22.17,36.87-22.17"/><path class="cls-1" d="m274.95,25.4c-7.6,0-11.24,4.23-18.11,13.02-7.31,9.36-17.32,22.17-36.87,22.17s-29.57-12.81-36.88-22.17c-6.87-8.8-10.51-13.02-18.12-13.02s-11.24,4.23-18.11,13.02c-7.31,9.36-17.32,22.17-36.87,22.17s-29.56-12.82-36.87-22.17c-6.87-8.79-10.51-13.02-18.11-13.02s-11.24,4.23-18.12,13.02c-7.31,9.36-17.32,22.17-36.88,22.17"/><path class="cls-1" d="m0,48.13c13.47,0,20.07-8.44,27.05-17.38,6.84-8.76,13.92-17.82,27.94-17.82s21.1,9.06,27.94,17.82c6.98,8.94,13.58,17.38,27.05,17.38s20.07-8.44,27.05-17.38c6.84-8.76,13.92-17.82,27.94-17.82s21.1,9.06,27.94,17.81c6.98,8.94,13.58,17.38,27.05,17.38s20.07-8.44,27.05-17.38c6.84-8.76,13.92-17.82,27.94-17.82"/></g></svg>