<?xml version="1.0" encoding="UTF-8"?><svg id="Layer_2" xmlns="http://www.w3.org/2000/svg" viewBox="0 0 191.09 117"><defs><style>.cls-1{fill:#fff;stroke-width:0px;}</style></defs><g id="Layer_1-2"><polygon class="cls-1" points=".21 0 .21 39 38.41 39 .21 0"/><polygon class="cls-1" points="38.38 0 38.38 39 76.58 39 38.38 0"/><polygon class="cls-1" points="76.55 0 76.55 39 114.75 39 76.55 0"/><polygon class="cls-1" points="114.72 0 114.72 39 152.92 39 114.72 0"/><polygon class="cls-1" points="152.89 0 152.89 39 191.09 39 152.89 0"/><polygon class="cls-1" points=".21 78 .21 117 38.41 117 .21 78"/><polygon class="cls-1" points="38.38 78 38.38 117 76.58 117 38.38 78"/><polygon class="cls-1" points="76.55 78 76.55 117 114.75 117 76.55 78"/><polygon class="cls-1" points="114.72 78 114.72 117 152.92 117 114.72 78"/><polygon class="cls-1" points="152.89 78 152.89 117 191.09 117 152.89 78"/><polygon class="cls-1" points="0 39 0 78 38.2 78 0 39"/><polygon class="cls-1" points="38.17 39 38.17 78 76.37 78 38.17 39"/><polygon class="cls-1" points="76.34 39 76.34 78 114.54 78 76.34 39"/><polygon class="cls-1" points="114.51 39 114.51 78 152.71 78 114.51 39"/><polygon class="cls-1" points="152.68 39 152.68 78 190.88 78 152.68 39"/></g></svg>